<svg height="512" viewBox="0 0 512 512" width="512" xmlns="http://www.w3.org/2000/svg"><g id="filled_outline" data-name="filled outline"><rect fill="#35e0d1" height="352" rx="2" width="464" x="24" y="32"/><path d="m118.16 296h-46.16v-32a46.422 46.422 0 0 1 2.8-16 47.848 47.848 0 0 1 45.2-32h264a31.991 31.991 0 0 1 32 32v48z" fill="#f5b02e"/><path d="m279.055 296h17.89l14.211-28.422a8 8 0 0 0 .844-3.578v-48h-16v46.109z" fill="#ec9e15"/><path d="m184 216h16v80h-16z" fill="#ec9e15"/><g fill="#2bc9c4"><rect height="80" rx="2" width="80" x="376" y="64"/><rect height="80" rx="2" width="80" x="56" y="80"/><rect height="64" rx="2" width="80" x="192" y="64"/></g><path d="m368 480h-224v-16a16 16 0 0 1 16-16h192a16 16 0 0 1 16 16z" fill="#cdcdcd"/><path d="m24 336h464a0 0 0 0 1 0 0v46a2 2 0 0 1 -2 2h-460a2 2 0 0 1 -2-2v-46a0 0 0 0 1 0 0z" fill="#cdcdcd"/><path d="m248 240h32v16h-32z" fill="#ec9e15"/><path d="m416 248a31.727 31.727 0 0 0 -1.131-8h-22.869v16h24z" fill="#ff9201"/><path d="m72.72 256h31.28v-16h-25.526a47.6 47.6 0 0 0 -5.754 16z" fill="#ff9201"/><path d="m432 184h32v16h-32z" fill="#2bc9c4"/><path d="m432 216h32v16h-32z" fill="#2bc9c4"/><path d="m326.311 444.622a135.547 135.547 0 0 1 -14.311-60.622h-32v8a24 24 0 0 1 -48 0v-8h-32a135.547 135.547 0 0 1 -14.311 60.622l-1.689 3.378h144z" fill="#a8a8a8"/><path d="m353.711 207.148a8 8 0 0 1 -3.586-15.156l57.875-28.937v-27.055a8 8 0 0 1 16 0v32a8 8 0 0 1 -4.422 7.156l-62.3 31.149a8.022 8.022 0 0 1 -3.567.843z" fill="#2bc9c4"/><path d="m279.992 188.055a7.941 7.941 0 0 1 -4.027-1.094l-48-28.055a8 8 0 0 1 -3.965-6.906v-32a8 8 0 0 1 16 0v27.406l44.035 25.742a8 8 0 0 1 -4.043 14.907z" fill="#2bc9c4"/><path d="m384 216h-208l3.5-5.251a96 96 0 0 1 79.878-42.749h39.658a96 96 0 0 1 73.749 34.542z" fill="#f8f8f8"/><path d="m299.036 168h-3.036v48h16v-47.019a95.662 95.662 0 0 0 -12.964-.981z" fill="#eaeae8"/><circle cx="136" cy="280" fill="#dbdbdb" r="24"/><circle cx="360" cy="280" fill="#dbdbdb" r="24"/><path d="m136 312a32 32 0 1 1 32-32 32.034 32.034 0 0 1 -32 32zm0-48a16 16 0 1 0 16 16 16.019 16.019 0 0 0 -16-16z" fill="#6f7478"/><path d="m360 312a32 32 0 1 1 32-32 32.034 32.034 0 0 1 -32 32zm0-48a16 16 0 1 0 16 16 16.019 16.019 0 0 0 -16-16z" fill="#6f7478"/><path d="m278.53 400h34.426a135.673 135.673 0 0 1 -.956-16h-32v8a23.769 23.769 0 0 1 -1.47 8z" fill="#878787"/><path d="m233.47 400a23.769 23.769 0 0 1 -1.47-8v-8h-32a135.673 135.673 0 0 1 -.956 16z" fill="#878787"/><path d="m58 168h30v24a8 8 0 0 0 3.2 6.4l15.081 11.311a55.743 55.743 0 0 0 -39.018 35.606 54.5 54.5 0 0 0 -3.263 18.683v32a8 8 0 0 0 8 8h42.868a31.91 31.91 0 0 0 42.264 0h130.827.035.028 50.846a31.91 31.91 0 0 0 42.264 0h34.868a8 8 0 0 0 8-8v-48a40.055 40.055 0 0 0 -36.092-39.807l-8.977-10.772c-.383-.46-.776-.908-1.165-1.36l41.812-20.906a8 8 0 0 0 4.422-7.155v-16h30a10.011 10.011 0 0 0 10-10v-76a10.011 10.011 0 0 0 -10-10h-76a10.011 10.011 0 0 0 -10 10v76a10.011 10.011 0 0 0 10 10h30v11.056l-42.275 21.137a103.6 103.6 0 0 0 -59.84-23.961 7.556 7.556 0 0 0 -2.962-.151c-1.292-.048-2.587-.081-3.887-.081h-37.492l-21.544-12.591v-11.409h30a10.011 10.011 0 0 0 10-10v-60a10.011 10.011 0 0 0 -10-10h-76a10.011 10.011 0 0 0 -10 10v60a10.011 10.011 0 0 0 10 10h30v16a8 8 0 0 0 3.963 6.907l6.882 4.022a103.757 103.757 0 0 0 -62 43.383l-1.126 1.688h-41.052l-26.667-20v-20h30a10.011 10.011 0 0 0 10-10v-76a10.011 10.011 0 0 0 -10-10h-76a10.011 10.011 0 0 0 -10 10v76a10.011 10.011 0 0 0 10 10zm326-32v-64h64v64zm-11.8 154.329a7.885 7.885 0 0 0 -.544.6 15.925 15.925 0 0 1 -23.31 0 7.885 7.885 0 0 0 -.544-.6 16 16 0 1 1 24.4 0zm-60.2-113.37a87.728 87.728 0 0 1 54.639 30.7l.281.337h-54.92zm-.845 90.619a7.994 7.994 0 0 0 .845-3.578v-40h72a24.039 24.039 0 0 1 22.624 16h-14.624v16h16v32h-17.013a32 32 0 1 0 -61.974 0h-28.069zm-15.155-5.467-12.944 25.889h-83.056v-64h96zm-96-142.111v-48h64v48zm59.359 56h36.641v32h-104.509a87.8 87.8 0 0 1 67.868-32zm-111.159 114.329a7.885 7.885 0 0 0 -.544.6 15.925 15.925 0 0 1 -23.31 0 7.885 7.885 0 0 0 -.544-.6 16 16 0 1 1 24.4 0zm27.8-66.329h8v64h-17.013a32 32 0 1 0 -61.974 0h-25.013v-24a39.158 39.158 0 0 1 .824-8h23.176v-16h-16a39.94 39.94 0 0 1 32-16zm-112-136h64v64h-64z"/><path d="m486 24h-460a10.011 10.011 0 0 0 -10 10v348a10.011 10.011 0 0 0 10 10h165.738a128.342 128.342 0 0 1 -12.7 48h-19.038a24.027 24.027 0 0 0 -24 24v16a8 8 0 0 0 8 8h224a8 8 0 0 0 8-8v-16a24.027 24.027 0 0 0 -24-24h-19.037a128.342 128.342 0 0 1 -12.7-48h165.737a10.011 10.011 0 0 0 10-10v-348a10.011 10.011 0 0 0 -10-10zm-158 432h24a8.009 8.009 0 0 1 8 8v8h-208v-8a8.009 8.009 0 0 1 8-8zm-93-32h42a11.013 11.013 0 0 0 11-11v-21h16.227a144.626 144.626 0 0 0 11.151 48h-118.756a144.626 144.626 0 0 0 11.151-48h16.227v21a11.013 11.013 0 0 0 11 11zm5-16v-16h32v16zm240-32h-448v-32h448zm0-48h-448v-288h448z"/><path d="m248 240h32v16h-32z"/><path d="m432 184h32v16h-32z"/><path d="m432 216h32v16h-32z"/></g></svg>