<svg height="512" viewBox="0 0 512 512" width="512" xmlns="http://www.w3.org/2000/svg"><g id="filled_outline" data-name="filled outline"><path d="m488 496h-464v-296l230.421-176 233.579 176z" fill="#a44944"/><path d="m488 200h-464l232-176z" fill="#714004"/><path d="m256 64-184 136h368z" fill="#a44944"/><path d="m256 80-184 136h368z" fill="#b8524d"/><path d="m56 200h400v296h-400z" fill="#dc9315"/><path d="m72 280h384v216h-384z" fill="#f5b02e"/><path d="m184 280v32a8 8 0 0 1 -16 0v-32z" fill="#cdcdcd"/><path d="m408 456-16.046 8h-287.954a43.414 43.414 0 0 1 12.157-30.129l4.421-4.586a43.413 43.413 0 0 1 31.257-13.285h34.2l9.138-6.374a142.516 142.516 0 0 1 81.536-25.626 142.517 142.517 0 0 1 81.429 25.554l16.185 11.268 19.179 1.81a16 16 0 0 1 14.498 15.929z" fill="#f85542"/><path d="m56 200h400v32h-400z" fill="#d9d9d9"/><circle cx="164.014" cy="464.494" fill="#ebebeb" r="23.506"/><circle cx="352.065" cy="464.494" fill="#ebebeb" r="23.506"/><path d="m164.016 496a31.506 31.506 0 1 1 31.5-31.508 31.542 31.542 0 0 1 -31.5 31.508zm0-47.012a15.506 15.506 0 1 0 15.5 15.5 15.522 15.522 0 0 0 -15.5-15.5z" fill="#6f7478"/><path d="m352.066 496a31.506 31.506 0 1 1 31.5-31.508 31.541 31.541 0 0 1 -31.5 31.508zm0-47.012a15.506 15.506 0 1 0 15.5 15.5 15.522 15.522 0 0 0 -15.5-15.5z" fill="#6f7478"/><path d="m278.758 444.281a7.994 7.994 0 0 0 1.242-4.281v-27.18a8 8 0 1 0 -16 0v24.86l-13.965 22.039a7.776 7.776 0 0 0 -1.1 4.281h17.327z" fill="#de4c3b"/><path d="m200 344h-48l8-32h32z" fill="#b8524d"/><path d="m160 312-6 24h44l-6-24z" fill="#a44944"/><path d="m416 280v88a8 8 0 0 1 -16 0v-88z" fill="#cdcdcd"/><path d="m408 352a15.84 15.84 0 0 0 -8 2.219v13.781a8 8 0 0 0 16 0v-13.781a15.84 15.84 0 0 0 -8-2.219z" fill="#a8a8a8"/><path d="m228 104h56a4 4 0 0 1 4 4v60a0 0 0 0 1 0 0h-64a0 0 0 0 1 0 0v-60a4 4 0 0 1 4-4z" fill="#69b9e7"/><path d="m288 144v-8a31.727 31.727 0 0 0 -1.131-8h-22.869v-22.869a28.859 28.859 0 0 0 -16 0v22.869h-22.869a31.727 31.727 0 0 0 -1.131 8v8h24v24h16v-24z" fill="#4298d1"/><path d="m339.064 403.191 3.464-2.981a142.172 142.172 0 0 0 -147.352 9.416l-9.137 6.374h135.4z" fill="#ebebeb"/><path d="m276.709 384c-.2 0-.409.022-.614.023l-11.529 29.024a7.945 7.945 0 0 0 -.534 2.953h16.574l11.539-29.047a7.755 7.755 0 0 0 .367-2.028 140.674 140.674 0 0 0 -15.803-.925z" fill="#d9d9d9"/><path d="m56 232h400v32h-400z" fill="#b9b9b9"/><g fill="#a8a8a8"><path d="m168 264h16v16h-16z"/><path d="m248 264h16v16h-16z"/><path d="m328 264h16v16h-16z"/><path d="m400 264h16v16h-16z"/><path d="m168 305.657h16v6.343h-16z"/></g><path d="m264 280v32a8 8 0 0 1 -16 0v-32z" fill="#cdcdcd"/><path d="m344 280v32a8 8 0 0 1 -16 0v-32z" fill="#cdcdcd"/><path d="m248 305.657h16v6.343h-16z" fill="#a8a8a8"/><path d="m328 305.657h16v6.343h-16z" fill="#a8a8a8"/><rect fill="#cdcdcd" height="32" rx="16" width="32" x="392" y="360"/><path d="m280 344h-48l8-32h32z" fill="#b8524d"/><path d="m240 312-6 24h44l-6-24z" fill="#a44944"/><path d="m360 344h-48l8-32h32z" fill="#b8524d"/><path d="m320 312-6 24h44l-6-24z" fill="#a44944"/><path d="m495.888 198.72a7.9 7.9 0 0 0 -.654-2.119c-.028-.06-.057-.12-.086-.179a8.057 8.057 0 0 0 -.557-.952c-.025-.036-.053-.069-.078-.1a8.207 8.207 0 0 0 -.648-.793c-.044-.047-.085-.1-.13-.143a8.16 8.16 0 0 0 -.827-.738c-.026-.02-.047-.045-.073-.065l-232-176a8 8 0 0 0 -9.67 0l-232 176c-.026.02-.047.045-.073.065a8.16 8.16 0 0 0 -.827.738c-.045.047-.086.1-.13.143a8.207 8.207 0 0 0 -.648.793c-.025.036-.053.069-.078.1a8.057 8.057 0 0 0 -.557.952c-.029.059-.058.119-.086.179a7.9 7.9 0 0 0 -.654 2.119c-.013.077-.025.153-.035.231a7.884 7.884 0 0 0 -.077 1.049v288a8 8 0 0 0 8 8h464a8 8 0 0 0 8-8v-288a7.884 7.884 0 0 0 -.077-1.049c-.01-.078-.023-.151-.035-.231zm-447.888 33.28v248h-16v-272h16zm116.014 248a15.507 15.507 0 1 1 15.507-15.506 15.524 15.524 0 0 1 -15.507 15.506zm0-47.013a31.557 31.557 0 0 0 -30.334 23.013h-20.774a35.413 35.413 0 0 1 9.011-16.605l4.38-4.54a35.844 35.844 0 0 1 25.543-10.855h112.16v13.679l-11.609 18.321h-58.043a31.557 31.557 0 0 0 -30.334-23.013zm49.058-24.987a133.9 133.9 0 0 1 61.2-15.954l-6 15.954zm-21.648 72a31.28 31.28 0 0 0 3.186-8h126.86a31.28 31.28 0 0 0 3.186 8zm160.641 0a15.507 15.507 0 1 1 15.507-15.506 15.524 15.524 0 0 1 -15.507 15.506zm0-47.013a31.557 31.557 0 0 0 -30.333 23.013h-50.4l7.425-11.718a8 8 0 0 0 1.243-4.282v-16h41.435a8 8 0 0 0 4.7-1.528l17.468-12.691c3.4 1.951 6.739 4.04 9.976 6.3l16.16 11.28a8 8 0 0 0 3.816 1.4l19.19 1.84a7.98 7.98 0 0 1 7.255 7.959v12.485l-9.96 4.955h-7.64a31.557 31.557 0 0 0 -30.335-23.013zm-66.7-24.987 5.709-15.19a130.755 130.755 0 0 1 25.93 5.4q5.225 1.609 10.282 3.655l-8.451 6.135zm162.635 72h-68.525a31.28 31.28 0 0 0 3.186-8h9.259a8.01 8.01 0 0 0 3.563-.837l16.08-8a8 8 0 0 0 4.437-7.163v-17.44a23.924 23.924 0 0 0 -21.717-23.883l-17.108-1.64-14.436-10.077a151.257 151.257 0 0 0 -76.4-26.62h-.056l-.163-.012c-2.8-.217-5.871-.325-9.395-.325a150.07 150.07 0 0 0 -86.088 27.033l-7.146 4.964h-31.651a51.943 51.943 0 0 0 -37.04 15.725l-4.411 4.572a51.3 51.3 0 0 0 -14.389 35.703 8 8 0 0 0 8 8h29.418a31.28 31.28 0 0 0 3.186 8h-72.604v-208h104v32h-8a8 8 0 0 0 -7.761 6.06l-8 32a8 8 0 0 0 7.761 9.94h48a8 8 0 0 0 7.761-9.94l-8-32a8 8 0 0 0 -7.761-6.06h-8v-32h64v32h-8a8 8 0 0 0 -7.761 6.06l-8 32a8 8 0 0 0 7.761 9.94h48a8 8 0 0 0 7.761-9.94l-8-32a8 8 0 0 0 -7.761-6.06h-8v-32h64v32h-8a8 8 0 0 0 -7.761 6.06l-8 32a8 8 0 0 0 7.761 9.94h48a8 8 0 0 0 7.761-9.94l-8-32a8 8 0 0 0 -7.761-6.06h-8v-32h56v80a8.043 8.043 0 0 0 .12 1.335 24 24 0 1 0 15.76 0 8.043 8.043 0 0 0 .12-1.335v-80h32zm-262.246-160 4 16h-27.508l4-16zm80 0 4 16h-27.508l4-16zm80 0 4 16h-27.508l4-16zm62.246 48a8 8 0 1 1 -8 8 8.009 8.009 0 0 1 8-8zm40-112h-384v-16h384zm0-32h-384v-16h384zm-224-48h64a8 8 0 0 0 8-8v-60a11.916 11.916 0 0 0 -1.333-5.472l121.05 89.472h-319.434l121.05-89.472a11.916 11.916 0 0 0 -1.333 5.472v60a8 8 0 0 0 8 8zm40-48v-16h16v16zm16 16v16h-16v-16zm-52-48a12.016 12.016 0 0 0 -2.1.2l30.1-22.252 30.1 22.252a12.016 12.016 0 0 0 -2.1-.2zm4 32v-16h16v16zm16 16v16h-16v-16zm194.636 48-181.881-134.434a8 8 0 0 0 -9.51 0l-181.881 134.434h-21.582l208.218-157.958 208.218 157.958zm37.364 288h-16v-272h16z"/></g></svg>